# Blender 3.5.1
# www.blender.org
mtllib Spears trap.mtl
o Cube
v -1.860386 -0.306653 1.860386
v -1.860386 0.306653 1.860386
v -1.860386 -0.306653 -1.860386
v -1.860386 0.306653 -1.860386
v 1.860386 -0.306653 1.860386
v 1.860386 0.306653 1.860386
v 1.860386 -0.306653 -1.860386
v 1.860386 0.306653 -1.860386
v -1.860386 0.306653 0.000000
v 0.000000 0.306653 -1.860386
v 1.860386 0.306653 0.000000
v 0.000000 0.306653 1.860386
v 0.000000 0.306653 0.000000
v -0.249188 0.306653 0.249188
v -1.611199 0.306653 0.249188
v -1.611199 0.306653 1.611199
v -0.249188 0.306653 1.611199
v 1.611199 0.306653 0.249188
v 0.249188 0.306653 0.249188
v 0.249188 0.306653 1.611199
v 1.611199 0.306653 1.611199
v 1.611199 0.306653 -1.611199
v 0.249188 0.306653 -1.611199
v 0.249188 0.306653 -0.249188
v 1.611199 0.306653 -0.249188
v -0.249188 0.306653 -1.611199
v -1.611199 0.306653 -1.611199
v -1.611199 0.306653 -0.249188
v -0.249188 0.306653 -0.249188
v -1.611199 -0.263663 0.249188
v -0.249188 -0.263663 0.249188
v -0.249188 -0.263663 1.611199
v -1.611199 -0.263663 1.611199
v 0.249188 -0.263663 0.249188
v 1.611199 -0.263663 0.249188
v 1.611199 -0.263663 1.611199
v 0.249188 -0.263663 1.611199
v 0.249188 -0.263663 -1.611199
v 1.611199 -0.263663 -1.611199
v 1.611199 -0.263663 -0.249188
v 0.249188 -0.263663 -0.249188
v -1.611199 -0.263663 -1.611199
v -0.249188 -0.263663 -1.611199
v -0.249188 -0.263663 -0.249188
v -1.611199 -0.263663 -0.249188
vn -1.0000 -0.0000 -0.0000
vn -0.0000 -0.0000 -1.0000
vn 1.0000 -0.0000 -0.0000
vn -0.0000 -0.0000 1.0000
vn -0.0000 -1.0000 -0.0000
vn -0.0000 1.0000 -0.0000
vt 0.375000 0.000000
vt 0.375000 1.000000
vt 0.125000 0.750000
vt 0.625000 0.000000
vt 0.625000 1.000000
vt 0.875000 0.750000
vt 0.375000 0.250000
vt 0.125000 0.500000
vt 0.625000 0.250000
vt 0.875000 0.500000
vt 0.375000 0.750000
vt 0.625000 0.750000
vt 0.375000 0.500000
vt 0.625000 0.500000
vt 0.625000 0.125000
vt 0.875000 0.625000
vt 0.625000 0.375000
vt 0.750000 0.500000
vt 0.625000 0.625000
vt 0.625000 0.875000
vt 0.750000 0.750000
vt 0.750000 0.625000
vt 0.766743 0.641743
vt 0.858257 0.641743
vt 0.858257 0.733257
vt 0.766743 0.733257
vt 0.641743 0.641743
vt 0.733257 0.641743
vt 0.733257 0.733257
vt 0.641743 0.733257
vt 0.641743 0.516743
vt 0.733257 0.516743
vt 0.733257 0.608257
vt 0.641743 0.608257
vt 0.766743 0.516743
vt 0.858257 0.516743
vt 0.858257 0.608257
vt 0.766743 0.608257
vt 0.858257 0.641743
vt 0.766743 0.641743
vt 0.766743 0.733257
vt 0.858257 0.733257
vt 0.733257 0.641743
vt 0.641743 0.641743
vt 0.641743 0.733257
vt 0.733257 0.733257
vt 0.733257 0.516743
vt 0.641743 0.516743
vt 0.641743 0.608257
vt 0.733257 0.608257
vt 0.858257 0.516743
vt 0.766743 0.516743
vt 0.766743 0.608257
vt 0.858257 0.608257
s 0
usemtl Material.003
f 1/1/1 2/4/1 9/15/1 4/9/1 3/7/1
f 3/7/2 4/9/2 10/17/2 8/14/2 7/13/2
f 7/13/3 8/14/3 11/19/3 6/12/3 5/11/3
f 5/11/4 6/12/4 12/20/4 2/5/4 1/2/4
f 3/8/5 7/13/5 5/11/5 1/3/5
f 26/35/4 27/36/4 42/51/4 43/52/4
f 21/30/1 18/27/1 35/44/1 36/45/1
f 22/31/4 23/32/4 38/47/4 39/48/4
f 17/26/1 14/23/1 31/40/1 32/41/1
f 13/22/6 9/16/6 15/24/6 14/23/6
f 9/16/6 2/6/6 16/25/6 15/24/6
f 2/6/6 12/21/6 17/26/6 16/25/6
f 12/21/6 13/22/6 14/23/6 17/26/6
f 11/19/6 13/22/6 19/28/6 18/27/6
f 13/22/6 12/21/6 20/29/6 19/28/6
f 12/21/6 6/12/6 21/30/6 20/29/6
f 6/12/6 11/19/6 18/27/6 21/30/6
f 8/14/6 10/18/6 23/32/6 22/31/6
f 10/18/6 13/22/6 24/33/6 23/32/6
f 13/22/6 11/19/6 25/34/6 24/33/6
f 11/19/6 8/14/6 22/31/6 25/34/6
f 10/18/6 4/10/6 27/36/6 26/35/6
f 4/10/6 9/16/6 28/37/6 27/36/6
f 9/16/6 13/22/6 29/38/6 28/37/6
f 13/22/6 10/18/6 26/35/6 29/38/6
f 31/40/6 30/39/6 33/42/6 32/41/6
f 35/44/6 34/43/6 37/46/6 36/45/6
f 39/48/6 38/47/6 41/50/6 40/49/6
f 43/52/6 42/51/6 45/54/6 44/53/6
f 15/24/3 16/25/3 33/42/3 30/39/3
f 25/34/1 22/31/1 39/48/1 40/49/1
f 19/28/3 20/29/3 37/46/3 34/43/3
f 29/38/1 26/35/1 43/52/1 44/53/1
f 16/25/2 17/26/2 32/41/2 33/42/2
f 23/32/3 24/33/3 41/50/3 38/47/3
f 20/29/2 21/30/2 36/45/2 37/46/2
f 27/36/3 28/37/3 45/54/3 42/51/3
f 24/33/2 25/34/2 40/49/2 41/50/2
f 28/37/2 29/38/2 44/53/2 45/54/2
f 14/23/4 15/24/4 30/39/4 31/40/4
f 18/27/4 19/28/4 34/43/4 35/44/4
o Cone
v 0.647071 -0.168029 -1.247111
v 1.154608 -0.168029 -1.247111
v 1.154608 -0.168029 -0.739574
v 0.647071 -0.168029 -0.739574
v 0.900840 1.985267 -0.993343
vn -0.0000 0.1170 -0.9931
vn 0.9931 0.1170 -0.0000
vn -0.0000 -1.0000 -0.0000
vn -0.0000 0.1170 0.9931
vn -0.9931 0.1170 -0.0000
vt 0.750000 0.490000
vt 0.250000 0.490000
vt 0.490000 0.250000
vt 0.990000 0.250000
vt 0.750000 0.010000
vt 0.250000 0.010000
vt 0.510000 0.250000
vt 0.010000 0.250000
vt 0.250000 0.250000
s 0
usemtl Material.002
f 46/56/7 50/63/7 47/57/7
f 47/57/8 50/63/8 48/60/8
f 46/55/9 47/58/9 48/59/9 49/61/9
f 48/60/10 50/63/10 49/62/10
f 49/62/11 50/63/11 46/56/11
o Cone.001
v -1.295190 -0.168029 -1.247111
v -0.787653 -0.168029 -1.247111
v -0.787653 -0.168029 -0.739574
v -1.295190 -0.168029 -0.739574
v -1.041422 1.985267 -0.993343
vn -0.0000 0.1170 -0.9931
vn 0.9931 0.1170 -0.0000
vn -0.0000 -1.0000 -0.0000
vn -0.0000 0.1170 0.9931
vn -0.9931 0.1170 -0.0000
vt 0.750000 0.490000
vt 0.250000 0.490000
vt 0.490000 0.250000
vt 0.990000 0.250000
vt 0.750000 0.010000
vt 0.250000 0.010000
vt 0.510000 0.250000
vt 0.010000 0.250000
vt 0.250000 0.250000
s 0
usemtl Material.002
f 51/65/12 55/72/12 52/66/12
f 52/66/13 55/72/13 53/69/13
f 51/64/14 52/67/14 53/68/14 54/70/14
f 53/69/15 55/72/15 54/71/15
f 54/71/16 55/72/16 51/65/16
o Cone.002
v -1.295190 -0.168029 0.780153
v -0.787653 -0.168029 0.780153
v -0.787653 -0.168029 1.287690
v -1.295190 -0.168029 1.287690
v -1.041422 1.985267 1.033921
vn -0.0000 0.1170 -0.9931
vn 0.9931 0.1170 -0.0000
vn -0.0000 -1.0000 -0.0000
vn -0.0000 0.1170 0.9931
vn -0.9931 0.1170 -0.0000
vt 0.750000 0.490000
vt 0.250000 0.490000
vt 0.490000 0.250000
vt 0.990000 0.250000
vt 0.750000 0.010000
vt 0.250000 0.010000
vt 0.510000 0.250000
vt 0.010000 0.250000
vt 0.250000 0.250000
s 0
usemtl Material.002
f 56/74/17 60/81/17 57/75/17
f 57/75/18 60/81/18 58/78/18
f 56/73/19 57/76/19 58/77/19 59/79/19
f 58/78/20 60/81/20 59/80/20
f 59/80/21 60/81/21 56/74/21
o Cone.003
v 0.733909 -0.168029 0.780153
v 1.241446 -0.168029 0.780153
v 1.241446 -0.168029 1.287690
v 0.733909 -0.168029 1.287690
v 0.987678 1.985267 1.033921
vn -0.0000 0.1170 -0.9931
vn 0.9931 0.1170 -0.0000
vn -0.0000 -1.0000 -0.0000
vn -0.0000 0.1170 0.9931
vn -0.9931 0.1170 -0.0000
vt 0.750000 0.490000
vt 0.250000 0.490000
vt 0.490000 0.250000
vt 0.990000 0.250000
vt 0.750000 0.010000
vt 0.250000 0.010000
vt 0.510000 0.250000
vt 0.010000 0.250000
vt 0.250000 0.250000
s 0
usemtl Material.002
f 61/83/22 65/90/22 62/84/22
f 62/84/23 65/90/23 63/87/23
f 61/82/24 62/85/24 63/86/24 64/88/24
f 63/87/25 65/90/25 64/89/25
f 64/89/26 65/90/26 61/83/26
